<?xml version="1.0" encoding="UTF-8"?>
<svg width="512" height="512" viewBox="0 0 512 512" fill="none" xmlns="http://www.w3.org/2000/svg">
  <!-- Background Circle -->
  <circle cx="256" cy="256" r="256" fill="#000000"/>
  
  <!-- DevOps Infinity Symbol -->
  <path d="M256 156
    C 200 156, 156 200, 156 256
    C 156 312, 200 356, 256 356
    C 312 356, 356 312, 356 256
    C 356 200, 312 156, 256 156
    M 256 206
    C 284 206, 306 228, 306 256
    C 306 284, 284 306, 256 306
    C 228 306, 206 284, 206 256
    C 206 228, 228 206, 256 206"
    fill="#4CAF50"/>
  
  <!-- Gear Icon -->
  <path d="M256 226
    C 239 226, 226 239, 226 256
    C 226 273, 239 286, 256 286
    C 273 286, 286 273, 286 256
    C 286 239, 273 226, 256 226
    M 256 241
    C 264 241, 271 248, 271 256
    C 271 264, 264 271, 256 271
    C 248 271, 241 264, 241 256
    C 241 248, 248 241, 256 241"
    fill="#FFFFFF"/>
</svg>
